<svg xmlns="http://www.w3.org/2000/svg" viewBox="0 0 10817 9730">
  <path fill="#5b7f67" d="M5401.56 487.044c-127.958 6.227-254.855 40.77-370.992 103.628-765.271 414.225-2397.45 1297.68-3193.03 1728.32-137.966 74.669-250.327 183.605-328.791 313.046l3963.09 2122.43s-249.048 416.428-470.593 786.926c-189.24 316.445-592.833 429.831-919.198 258.219l-2699.36-1419.32v2215.59c0 226.273 128.751 435.33 337.755 548.466 764.649 413.885 2620.97 1418.66 3385.59 1832.51 209.018 113.137 466.496 113.137 675.514 0 764.623-413.857 2620.94-1418.63 3385.59-1832.51 208.989-113.136 337.743-322.193 337.743-548.466v-3513.48c0-318.684-174.59-611.722-454.853-763.409-795.543-430.632-2427.75-1314.09-3193.02-1728.32-141.693-76.684-299.364-111.227-455.442-103.628"/>
</svg>
